
        <svg xmlns="http://www.w3.org/2000/svg" xmlns:xlink="http://www.w3.org/1999/xlink" version="1.1" width="3162.3786428145627" height="870.186643083235" viewBox="0 -73.07038926655342 3162.3786428145627 870.186643083235">
			
			<g transform="scale(8.118932140728157) translate(10, 10)">
				<defs id="SvgjsDefs11947"/><g id="SvgjsG11948" featureKey="symbolFeature-0" transform="matrix(0.9651844191658048,0,0,0.9651844191658048,-4.198206336446482,-22.541538063635787)" fill="#fff"><path xmlns="http://www.w3.org/2000/svg" d="M14.03,50.03l13.5,13.5l13.5-13.5l-13.5-13.5L14.03,50.03 M27.53,32.03l18,18l-18,18l-18-18L27.53,32.03" style="fill-rule: evenodd; clip-rule: evenodd;"/><path xmlns="http://www.w3.org/2000/svg" d="M27.53,54.53l4.5-4.5l-4.5-4.5l-4.5,4.5L27.53,54.53 M18.53,50.03l9-9l9,9l-9,9L18.53,50.03" style="fill-rule: evenodd; clip-rule: evenodd;"/><path xmlns="http://www.w3.org/2000/svg" d="M68.03,72.53l-18-18l-18,18l18,18L68.03,72.53 M72.53,72.53l-22.5,22.5l-22.5-22.5l22.5-22.5L72.53,72.53" style="fill-rule: evenodd; clip-rule: evenodd;"/><path xmlns="http://www.w3.org/2000/svg" d="M59.03,72.53l-9-9l-9,9l9,9L59.03,72.53 M63.53,72.53l-13.5,13.5l-13.5-13.5l13.5-13.5L63.53,72.53" style="fill-rule: evenodd; clip-rule: evenodd;"/><polyline xmlns="http://www.w3.org/2000/svg" points="54.53,72.53 50.03,77.03 45.53,72.53 50.03,68.03 54.53,72.53 " style="fill-rule: evenodd; clip-rule: evenodd;"/><path xmlns="http://www.w3.org/2000/svg" d="M41.03,27.53l9,9l9-9l-9-9L41.03,27.53 M36.53,27.53l13.5-13.5l13.5,13.5l-13.5,13.5L36.53,27.53" style="fill-rule: evenodd; clip-rule: evenodd;"/><polyline xmlns="http://www.w3.org/2000/svg" points="45.53,27.53 50.03,23.03 54.53,27.53 50.03,32.03 45.53,27.53 " style="fill-rule: evenodd; clip-rule: evenodd;"/><path xmlns="http://www.w3.org/2000/svg" d="M72.53,45.53l-4.5,4.5l4.5,4.5l4.5-4.5L72.53,45.53 M81.53,50.03l-9,9l-9-9l9-9L81.53,50.03" style="fill-rule: evenodd; clip-rule: evenodd;"/></g><g id="SvgjsG11949" featureKey="nameFeature-0" transform="matrix(0.6680911102065764,0,0,0.6680911102065764,88.34740798985568,0.9750965990633347)" fill="#fff"><path d="M8.0859 36.4844 l9.4336 0 l0 3.5156 l-13.32 0 l0 -10.82 l-3.2227 2.4023 l0 -2.6758 l3.2227 -2.4023 l0 -14.121 l3.8867 0 l0 11.211 l3.7695 -2.8125 l0 2.6953 l-3.7695 2.8125 l0 10.195 z M32.38275 40.37109 c-5.7227 0 -10.156 -3.3789 -10.156 -9.6094 l0 -18.379 l3.8867 0 l0 17.832 c0 4.5508 2.7344 6.6406 6.2695 6.6406 s6.3281 -2.1094 6.3281 -6.6406 l0 -17.832 l3.8867 0 l0 18.379 c0 6.2305 -4.4531 9.6094 -10.215 9.6094 z M66.38646875 40 l-9.6875 -12.598 l-2.3828 0 l0 12.598 l-3.8867 0 l0 -27.617 l3.8867 0 l0 11.543 l2.3438 0 l9.4141 -11.543 l4.7656 0 l-10.82 13.164 l11.348 14.453 l-4.9805 0 z M94.41375 40 l-2.3047 -6.4453 l-12.344 0 l-2.3047 6.4453 l-4.043 0 l10.176 -27.617 l4.6875 0 l10.176 27.617 l-4.043 0 z M80.97655 30.1562 l9.9219 0 l-4.9609 -13.926 z M112.38325 40.37109 c-5.7617 0 -9.9805 -2.7539 -10.918 -7.4414 l3.9648 -0.9375 c0.625 3.2227 3.418 5.0781 7.0898 5.0781 c2.9492 0 5.7813 -1.2109 5.7227 -4.5313 c-0.039063 -3.2813 -3.5938 -4.1797 -7.3633 -5.2148 c-4.2773 -1.1719 -8.5547 -2.5195 -8.5547 -7.5977 c0 -5.1367 4.2383 -7.7148 9.2578 -7.7148 c4.8633 0 9.2383 2.0508 10.273 6.7969 l-3.7695 0.95703 c-0.68359 -3.0664 -3.2422 -4.4336 -6.3281 -4.4336 c-2.7734 0 -5.5273 1.2109 -5.5273 4.3555 c0 2.8516 3.0859 3.6914 6.582 4.6289 c4.3945 1.1914 9.4336 2.5586 9.4336 8.1055 c0 5.5859 -4.6875 7.9492 -9.8633 7.9492 z M131.09379375 36.4844 l15.605 0 l0 3.5156 l-20.371 0 l0 -3.1445 l15.254 -20.977 l-15.215 0 l0 -3.4961 l19.863 0 l0 3.1836 z M167.96871875 40 l-7.793 -27.617 l4.043 0 l6.3672 22.461 l6.7578 -22.461 l3.3984 0 l6.7578 22.461 l6.3867 -22.461 l4.0234 0 l-7.793 27.617 l-4.668 0 l-6.4063 -20.547 l-6.4063 20.547 l-4.668 0 z M203.39841875 40 l0 -27.617 l3.8867 0 l0 27.617 l-3.8867 0 z M230.72290625 15.879000000000001 l-11.055 0 l0 8.5938 l9.7461 0 l0 3.4766 l-9.7461 0 l0 8.5352 l11.055 0 l0 3.5156 c-1.0547 1.0547 -3.3008 3.2227 -3.3008 4.4336 c0 0.50781 0.42969 0.80078 1.4258 0.80078 c0.625 0 1.3672 -0.23438 1.875 -0.60547 l0 2.6563 c-0.64453 0.25391 -1.4453 0.39063 -2.2266 0.39063 c-2.2656 0 -3.4961 -0.70313 -3.4961 -1.8945 c0 -1.5625 2.0117 -3.8867 3.8867 -5.7813 l-13.184 0 l0 -27.617 l15.02 0 l0 3.4961 z M249.19946875 40.37109 c-7.832 0 -13.809 -5.3711 -13.809 -14.199 c0 -8.7891 5.9766 -14.16 13.809 -14.16 c5.5859 0 10.215 2.7734 12.344 7.5195 l-3.5938 1.4258 c-1.6016 -3.3789 -4.8633 -5.2734 -8.75 -5.2734 c-5.5469 0 -9.9414 3.8281 -9.9414 10.488 c0 6.6992 4.3945 10.527 9.9414 10.527 c3.8867 0 7.1484 -1.8945 8.75 -5.2734 l3.5938 1.4453 c-2.1289 4.7266 -6.7578 7.5 -12.344 7.5 z M283.30053125 40 l-9.6875 -12.598 l-2.3828 0 l0 12.598 l-3.8867 0 l0 -27.617 l3.8867 0 l0 11.543 l2.3438 0 l9.4141 -11.543 l4.7656 0 l-10.82 13.164 l11.348 14.453 l-4.9805 0 z M305.3518125 40.37109 c-7.832 0 -13.809 -5.3906 -13.809 -14.199 c0 -8.7891 5.9766 -14.16 13.809 -14.16 c7.793 0 13.789 5.3711 13.789 14.16 c0 8.8086 -5.9961 14.199 -13.789 14.199 z M305.3518125 36.7187 c5.5273 0 9.9023 -3.8281 9.9023 -10.547 c0 -6.6602 -4.375 -10.488 -9.9023 -10.488 c-5.5469 0 -9.9414 3.8281 -9.9414 10.488 c0 6.7188 4.3945 10.547 9.9414 10.547 z M330.50778125 40 l-7.793 -27.617 l4.043 0 l6.3672 22.461 l6.7578 -22.461 l3.3984 0 l6.7578 22.461 l6.3867 -22.461 l4.0234 0 l-7.793 27.617 l-4.668 0 l-6.4063 -20.547 l-6.4063 20.547 l-4.668 0 z M374.59028125 40.37109 c-5.7617 0 -9.9805 -2.7539 -10.918 -7.4414 l3.9648 -0.9375 c0.625 3.2227 3.418 5.0781 7.0898 5.0781 c2.9492 0 5.7813 -1.2109 5.7227 -4.5313 c-0.039063 -3.2813 -3.5938 -4.1797 -7.3633 -5.2148 c-4.2773 -1.1719 -8.5547 -2.5195 -8.5547 -7.5977 c0 -5.1367 4.2383 -7.7148 9.2578 -7.7148 c4.8633 0 9.2383 2.0508 10.273 6.7969 l-3.7695 0.95703 c-0.68359 -3.0664 -3.2422 -4.4336 -6.3281 -4.4336 c-2.7734 0 -5.5273 1.2109 -5.5273 4.3555 c0 2.8516 3.0859 3.6914 6.582 4.6289 c4.3945 1.1914 9.4336 2.5586 9.4336 8.1055 c0 5.5859 -4.6875 7.9492 -9.8633 7.9492 z M406.796625 40 l-9.6875 -12.598 l-2.3828 0 l0 12.598 l-3.8867 0 l0 -27.617 l3.8867 0 l0 11.543 l2.3438 0 l9.4141 -11.543 l4.7656 0 l-10.82 13.164 l11.348 14.453 l-4.9805 0 z M416.95310625 40 l0 -27.617 l3.8867 0 l0 27.617 l-3.8867 0 z"/></g><g id="SvgjsG11950" featureKey="sloganFeature-0" transform="matrix(1.1059204802854659,0,0,1.1059204802854659,139.28723449514362,33.358006607664656)" fill="#fff"><path d="M4.541 20 l-3.8965 -13.809 l2.0215 0 l3.1836 11.23 l3.3789 -11.23 l1.6992 0 l3.3789 11.23 l3.1934 -11.23 l2.0117 0 l-3.8965 13.809 l-2.334 0 l-3.2031 -10.273 l-3.2031 10.273 l-2.334 0 z M28.52785703125 7.939 l-5.5273 0 l0 4.2969 l4.873 0 l0 1.7383 l-4.873 0 l0 4.2676 l5.5273 0 l0 1.7578 l-7.5098 0 l0 -13.809 l7.5098 0 l0 1.748 z M37.2705453125 12.773399999999999 c1.6309 0.41016 2.7246 1.5332 2.7246 3.457 c0 2.2168 -1.5039 3.7695 -3.9844 3.7695 l-5.4297 0 l0 -13.809 l4.2383 0 c2.5488 0 4.1602 1.4844 4.1602 3.6719 c0 1.3086 -0.5957 2.3828 -1.709 2.9102 z M37.1630453125 9.99 c0 -1.1914 -0.85938 -2.1191 -2.3535 -2.1191 l-2.3438 0 l0 4.2969 l2.6465 0 c1.25 0 2.0508 -0.97656 2.0508 -2.1777 z M35.6787453125 18.291 c1.5723 0 2.4219 -1.0547 2.4219 -2.2559 c0 -1.2695 -0.88867 -2.2852 -2.5391 -2.2852 l-3.0957 0 l0 4.541 l3.2129 0 z M45.8496 20 l0 -13.809 l4.5508 0 c4.248 0 6.4063 2.8516 6.4063 6.8945 c0 4.0723 -2.1582 6.9141 -6.4063 6.9141 l-4.5508 0 z M47.793 18.2422 l2.5293 0 c3.0176 0 4.4531 -2.002 4.4531 -5.1563 c0 -3.1348 -1.4355 -5.1465 -4.4531 -5.1465 l-2.5293 0 l0 10.303 z M66.36965390625 7.939 l-5.5273 0 l0 4.2969 l4.873 0 l0 1.7383 l-4.873 0 l0 4.2676 l5.5273 0 l0 1.7578 l-7.5098 0 l0 -13.809 l7.5098 0 l0 1.748 z M76.9772421875 6.191000000000001 l2.0508 0 l-5.0781 13.809 l-2.0313 0 l-5.0586 -13.809 l2.041 0 l4.043 11.426 z M87.93703671875 7.939 l-5.5273 0 l0 4.2969 l4.873 0 l0 1.7383 l-4.873 0 l0 4.2676 l5.5273 0 l0 1.7578 l-7.5098 0 l0 -13.809 l7.5098 0 l0 1.748 z M91.933625 18.2422 l4.7168 0 l0 1.7578 l-6.6602 0 l0 -13.809 l1.9434 0 l0 12.051 z M103.99660703125 20.18555 c-3.916 0 -6.9043 -2.6953 -6.9043 -7.0996 c0 -4.3945 2.9883 -7.0801 6.9043 -7.0801 c3.8965 0 6.8945 2.6855 6.8945 7.0801 c0 4.4043 -2.998 7.0996 -6.8945 7.0996 z M103.99660703125 18.3594 c2.7637 0 4.9512 -1.9141 4.9512 -5.2734 c0 -3.3301 -2.1875 -5.2441 -4.9512 -5.2441 c-2.7734 0 -4.9707 1.9141 -4.9707 5.2441 c0 3.3594 2.1973 5.2734 4.9707 5.2734 z M118.2177984375 6.191000000000001 c2.5293 0 4.1602 1.9141 4.1602 4.2773 c0 2.3926 -1.6309 4.2383 -4.1602 4.2383 l-3.3789 0 l0 5.293 l-1.9434 0 l0 -13.809 l5.3223 0 z M117.9247984375 13.0273 c1.6211 0 2.5293 -1.0449 2.5293 -2.5879 c0 -1.4844 -0.9082 -2.5781 -2.5293 -2.5781 l-3.0859 0 l0 5.166 l3.0859 0 z M138.91351171875 20 l-1.9043 0 l-0.9082 -11.23 l-4.2676 11.23 l-1.1816 0 l-4.2383 -11.191 l-0.92773 11.191 l-1.9141 0 l1.0645 -13.809 l2.627 0 l3.9746 10.439 l3.9941 -10.439 l2.627 0 z M148.857446875 7.939 l-5.5273 0 l0 4.2969 l4.873 0 l0 1.7383 l-4.873 0 l0 4.2676 l5.5273 0 l0 1.7578 l-7.5098 0 l0 -13.809 l7.5098 0 l0 1.748 z M160.21703515625 6.191000000000001 l1.9336 0 l0 13.809 l-2.0996 0 l-7.2168 -10.957 l0 10.957 l-1.9238 0 l0 -13.809 l2.0801 0 l7.2266 10.908 l0 -10.908 z M172.4657953125 6.191000000000001 l0 1.748 l-3.4961 0 l0 12.061 l-1.9238 0 l0 -12.061 l-3.5059 0 l0 -1.748 l8.9258 0 z"/></g>
			</g>
		</svg>
	