
        <svg xmlns="http://www.w3.org/2000/svg" xmlns:xlink="http://www.w3.org/1999/xlink" version="1.1" width="3229.007633587786" height="799.236641221374" viewBox="0 -34.35114503816794 3229.007633587786 799.236641221374">
			
			<g transform="scale(11.450381679389313) translate(10, 10)">
				<defs id="SvgjsDefs8387"/><g id="SvgjsG8388" featureKey="symbolFeature-0" transform="matrix(0.5777777777777777,0,0,0.5777777777777777,-5.5062215169270825,-11.106222618950737)" fill="#fff"><path xmlns="http://www.w3.org/2000/svg" d="M14.03,50.03l13.5,13.5l13.5-13.5l-13.5-13.5L14.03,50.03 M27.53,32.03l18,18l-18,18l-18-18L27.53,32.03" style="fill-rule: evenodd; clip-rule: evenodd;"/><path xmlns="http://www.w3.org/2000/svg" d="M27.53,54.53l4.5-4.5l-4.5-4.5l-4.5,4.5L27.53,54.53 M18.53,50.03l9-9l9,9l-9,9L18.53,50.03" style="fill-rule: evenodd; clip-rule: evenodd;"/><path xmlns="http://www.w3.org/2000/svg" d="M68.03,72.53l-18-18l-18,18l18,18L68.03,72.53 M72.53,72.53l-22.5,22.5l-22.5-22.5l22.5-22.5L72.53,72.53" style="fill-rule: evenodd; clip-rule: evenodd;"/><path xmlns="http://www.w3.org/2000/svg" d="M59.03,72.53l-9-9l-9,9l9,9L59.03,72.53 M63.53,72.53l-13.5,13.5l-13.5-13.5l13.5-13.5L63.53,72.53" style="fill-rule: evenodd; clip-rule: evenodd;"/><polyline xmlns="http://www.w3.org/2000/svg" points="54.53,72.53 50.03,77.03 45.53,72.53 50.03,68.03 54.53,72.53 " style="fill-rule: evenodd; clip-rule: evenodd;"/><path xmlns="http://www.w3.org/2000/svg" d="M41.03,27.53l9,9l9-9l-9-9L41.03,27.53 M36.53,27.53l13.5-13.5l13.5,13.5l-13.5,13.5L36.53,27.53" style="fill-rule: evenodd; clip-rule: evenodd;"/><polyline xmlns="http://www.w3.org/2000/svg" points="45.53,27.53 50.03,23.03 54.53,27.53 50.03,32.03 45.53,27.53 " style="fill-rule: evenodd; clip-rule: evenodd;"/><path xmlns="http://www.w3.org/2000/svg" d="M72.53,45.53l-4.5,4.5l4.5,4.5l4.5-4.5L72.53,45.53 M81.53,50.03l-9,9l-9-9l9-9L81.53,50.03" style="fill-rule: evenodd; clip-rule: evenodd;"/></g><g id="SvgjsG8389" featureKey="nameFeature-0" transform="matrix(1.0719262409542525,0,0,1.0719262409542525,61.571230040309274,-5.766963299006101)" fill="#fff"><path d="M4.26 17.48 l6.98 0 l0 2.52 l-9.72 0 l0 -4.96 l-1.12 0.48 l0 -2.34 l1.12 -0.48 l0 -6.7 l2.74 0 l0 5.52 l3.9 -1.68 l0 2.34 l-3.9 1.68 l0 3.62 z M20.119999999999997 9.88 l2.64 0 l0 10.12 l-2.64 0 l0 -1.28 c-0.68 0.9 -1.78 1.56 -3.24 1.56 c-2.66 0 -4 -1.78 -4 -4.5 l0 -5.9 l2.64 0 l0 5.4 c0 1.54 0.7 2.54 2.16 2.54 c1.5 0 2.44 -1.16 2.44 -2.96 l0 -4.98 z M32.120000000000005 20 l-2.94 -3.9 l-1.18 1.32 l0 2.58 l-2.64 0 l0 -14.6 l2.64 0 l0 8.66 l3.64 -4.18 l3.08 0 l-3.88 4.36 l4.28 5.76 l-3 0 z M40.3 20.28 c-2.8 0 -5 -2.28 -5 -5.34 c0 -3.08 2.2 -5.34 5 -5.34 c1.42 0 2.54 0.58 3.26 1.5 l0 -1.22 l2.66 0 l0 10.12 l-2.66 0 l0 -1.24 c-0.72 0.92 -1.84 1.52 -3.26 1.52 z M40.76 17.92 c1.6 0 2.88 -1.24 2.88 -3 c0 -1.74 -1.28 -2.96 -2.88 -2.96 c-1.66 0 -2.84 1.22 -2.84 2.96 c0 1.76 1.18 3 2.84 3 z M52.8 20.28 c-2.5 0 -4.42 -1.48 -4.92 -3.12 l2.38 -0.7 c0.34 0.96 1.3 1.68 2.64 1.68 c1.02 0 1.68 -0.48 1.68 -1.04 c0 -0.5 -0.38 -0.78 -1.12 -1 l-2.58 -0.76 c-1.44 -0.42 -2.5 -1.26 -2.5 -2.7 c0 -1.7 1.84 -3.04 4.06 -3.04 c2.18 0 3.84 1.04 4.48 2.56 l-2.34 0.68 c-0.36 -0.64 -1.1 -1.18 -2.16 -1.18 c-0.82 0 -1.44 0.44 -1.44 0.92 c0 0.4 0.28 0.64 0.84 0.8 l2.52 0.72 c1.52 0.44 2.84 1.06 2.84 2.88 c0 1.9 -1.8 3.3 -4.38 3.3 z M62.22 17.8 l5.52 0 l0 2.2 l-9.04 0 l0 -1.68 l5.36 -6.26 l-5.24 0 l0 -2.18 l8.74 0 l0 1.68 z M90.46000000000001 6 l2.88 0 l-4.24 14 l-2.9 0 l-2.76 -9.4 l-2.76 9.4 l-2.9 0 l-4.26 -14 l2.88 0 l2.88 10.14 l2.92 -10.14 l2.46 0 l2.92 10.14 z M96.08 8.46 c-0.88 0 -1.58 -0.68 -1.58 -1.56 c0 -0.84 0.7 -1.52 1.58 -1.52 s1.58 0.68 1.58 1.52 c0 0.88 -0.7 1.56 -1.58 1.56 z M94.72 20 l0 -10.12 l2.66 0 l0 10.12 l-2.66 0 z M109.92 14.8 c0 0.32 0 0.62 -0.06 0.94 l-7.86 0 c0.18 1.3 1.1 2.3 2.94 2.3 c1.28 0 2.06 -0.58 2.46 -1.34 l2.38 0.7 c-0.3 0.68 -0.9 1.44 -1.76 2 c-1.14 0.92 -1.88 1.94 -1.88 2.64 c0 0.42 0.22 0.68 0.66 0.68 s0.92 -0.26 1.18 -0.6 l0.46 1.46 c-0.38 0.46 -1.16 0.9 -2.12 0.9 c-1.24 0 -2.16 -0.76 -2.16 -1.96 c0 -0.84 0.48 -1.62 1.18 -2.26 c-0.14 0.02 -0.28 0.02 -0.44 0.02 c-3.24 0 -5.5 -2.14 -5.5 -5.34 c0 -3.02 2.12 -5.34 5.3 -5.34 c3.32 0 5.22 2.3 5.22 5.2 z M102 14.08 l5.34 0 c-0.12 -1.24 -1.08 -2.24 -2.66 -2.24 c-1.54 0 -2.54 1.08 -2.68 2.24 z M116.68 20.28 c-3.1 0 -5.38 -2.32 -5.38 -5.36 c0 -3.02 2.28 -5.32 5.36 -5.32 c2.8 0 4.54 1.8 4.94 3.32 l-2.46 0.7 c-0.22 -0.84 -1.16 -1.68 -2.48 -1.68 c-1.68 0 -2.76 1.38 -2.76 2.98 c0 1.58 1.08 3 2.76 3 c1.32 0 2.26 -0.78 2.48 -1.62 l2.46 0.68 c-0.4 1.54 -2.14 3.3 -4.92 3.3 z M130.28 20 l-2.94 -3.9 l-1.18 1.32 l0 2.58 l-2.64 0 l0 -14.6 l2.64 0 l0 8.66 l3.64 -4.18 l3.08 0 l-3.88 4.36 l4.28 5.76 l-3 0 z M138.88 20.28 c-3.12 0 -5.42 -2.32 -5.42 -5.34 c0 -3.04 2.3 -5.34 5.42 -5.34 s5.4 2.3 5.4 5.34 c0 3.02 -2.28 5.34 -5.4 5.34 z M138.88 17.88 c1.68 0 2.84 -1.26 2.84 -2.94 s-1.16 -2.94 -2.84 -2.94 c-1.7 0 -2.84 1.26 -2.84 2.94 s1.14 2.94 2.84 2.94 z M158.39999999999998 9.88 l2.74 0 l-3.5 10.12 l-2.46 0 l-2.08 -6.38 l-2.08 6.38 l-2.48 0 l-3.48 -10.12 l2.74 0 l2.1 6.78 l2.08 -6.78 l2.22 0 l2.1 6.78 z M166.5 20.28 c-2.5 0 -4.42 -1.48 -4.92 -3.12 l2.38 -0.7 c0.34 0.96 1.3 1.68 2.64 1.68 c1.02 0 1.68 -0.48 1.68 -1.04 c0 -0.5 -0.38 -0.78 -1.12 -1 l-2.58 -0.76 c-1.44 -0.42 -2.5 -1.26 -2.5 -2.7 c0 -1.7 1.84 -3.04 4.06 -3.04 c2.18 0 3.84 1.04 4.48 2.56 l-2.34 0.68 c-0.36 -0.64 -1.1 -1.18 -2.16 -1.18 c-0.82 0 -1.44 0.44 -1.44 0.92 c0 0.4 0.28 0.64 0.84 0.8 l2.52 0.72 c1.52 0.44 2.84 1.06 2.84 2.88 c0 1.9 -1.8 3.3 -4.38 3.3 z M179.66 20 l-2.94 -3.9 l-1.18 1.32 l0 2.58 l-2.64 0 l0 -14.6 l2.64 0 l0 8.66 l3.64 -4.18 l3.08 0 l-3.88 4.36 l4.28 5.76 l-3 0 z M185.39999999999998 8.46 c-0.88 0 -1.58 -0.68 -1.58 -1.56 c0 -0.84 0.7 -1.52 1.58 -1.52 s1.58 0.68 1.58 1.52 c0 0.88 -0.7 1.56 -1.58 1.56 z M184.04 20 l0 -10.12 l2.66 0 l0 10.12 l-2.66 0 z"/></g><g id="SvgjsG8390" featureKey="sloganFeature-0" transform="matrix(0.8905711361887354,0,0,0.8905711361887354,61.91094127268297,25.190916204306756)" fill="#fff"><path d="M17.04 6 l2.88 0 l-4.24 14 l-2.9 0 l-2.76 -9.4 l-2.76 9.4 l-2.9 0 l-4.26 -14 l2.88 0 l2.88 10.14 l2.92 -10.14 l2.46 0 l2.92 10.14 z M25.18 20.28 c-3.24 0 -5.5 -2.14 -5.5 -5.34 c0 -3.02 2.12 -5.34 5.3 -5.34 c3.32 0 5.22 2.3 5.22 5.2 c0 0.32 0 0.62 -0.06 0.94 l-7.86 0 c0.18 1.3 1.1 2.3 2.94 2.3 c1.28 0 2.06 -0.58 2.46 -1.34 l2.38 0.7 c-0.58 1.32 -2.22 2.88 -4.88 2.88 z M22.28 14.08 l5.34 0 c-0.12 -1.24 -1.08 -2.24 -2.66 -2.24 c-1.54 0 -2.54 1.08 -2.68 2.24 z M38.12 9.6 c2.8 0 4.98 2.26 4.98 5.34 c0 3.06 -2.18 5.34 -4.98 5.34 c-1.44 0 -2.54 -0.6 -3.28 -1.52 l0 1.24 l-2.64 0 l0 -14.6 l2.64 0 l0 5.7 c0.74 -0.92 1.84 -1.5 3.28 -1.5 z M37.66 17.92 c1.66 0 2.84 -1.24 2.84 -3 c0 -1.74 -1.18 -2.96 -2.84 -2.96 c-1.6 0 -2.88 1.22 -2.88 2.96 c0 1.76 1.28 3 2.88 3 z M56.1 6 c4.08 0 6.7 2.88 6.7 7 c0 4.04 -2.58 7 -6.7 7 l-6.08 0 l0 -14 l6.08 0 z M56.04 17.52 c2.4 0 4 -1.88 4 -4.58 c0 -2.66 -1.6 -4.48 -4 -4.48 l-3.3 0 l0 9.06 l3.3 0 z M69.69999999999999 20.28 c-3.24 0 -5.5 -2.14 -5.5 -5.34 c0 -3.02 2.12 -5.34 5.3 -5.34 c3.32 0 5.22 2.3 5.22 5.2 c0 0.32 0 0.62 -0.06 0.94 l-7.86 0 c0.18 1.3 1.1 2.3 2.94 2.3 c1.28 0 2.06 -0.58 2.46 -1.34 l2.38 0.7 c-0.58 1.32 -2.22 2.88 -4.88 2.88 z M66.8 14.08 l5.34 0 c-0.12 -1.24 -1.08 -2.24 -2.66 -2.24 c-1.54 0 -2.54 1.08 -2.68 2.24 z M83.96000000000001 9.88 l2.88 0 l-4.18 10.12 l-2.98 0 l-4.18 -10.12 l2.9 0 l2.78 7.2 z M93.1 20.28 c-3.24 0 -5.5 -2.14 -5.5 -5.34 c0 -3.02 2.12 -5.34 5.3 -5.34 c3.32 0 5.22 2.3 5.22 5.2 c0 0.32 0 0.62 -0.06 0.94 l-7.86 0 c0.18 1.3 1.1 2.3 2.94 2.3 c1.28 0 2.06 -0.58 2.46 -1.34 l2.38 0.7 c-0.58 1.32 -2.22 2.88 -4.88 2.88 z M90.2 14.08 l5.34 0 c-0.12 -1.24 -1.08 -2.24 -2.66 -2.24 c-1.54 0 -2.54 1.08 -2.68 2.24 z M100.12 20 l0 -14.6 l2.64 0 l0 14.6 l-2.64 0 z M110.16 20.28 c-3.12 0 -5.42 -2.32 -5.42 -5.34 c0 -3.04 2.3 -5.34 5.42 -5.34 s5.4 2.3 5.4 5.34 c0 3.02 -2.28 5.34 -5.4 5.34 z M110.16 17.88 c1.68 0 2.84 -1.26 2.84 -2.94 s-1.16 -2.94 -2.84 -2.94 c-1.7 0 -2.84 1.26 -2.84 2.94 s1.14 2.94 2.84 2.94 z M123.48 9.6 c2.8 0 4.98 2.26 4.98 5.34 c0 3.06 -2.18 5.34 -4.98 5.34 c-1.44 0 -2.54 -0.6 -3.28 -1.52 l0 5.44 l-2.64 0 l0 -14.32 l2.64 0 l0 1.22 c0.74 -0.92 1.84 -1.5 3.28 -1.5 z M123.02000000000001 17.92 c1.66 0 2.84 -1.24 2.84 -3 c0 -1.74 -1.18 -2.96 -2.84 -2.96 c-1.6 0 -2.88 1.22 -2.88 2.96 c0 1.76 1.28 3 2.88 3 z M142.56 9.6 c2.42 0 4 1.56 4 4.38 l0 6.02 l-2.64 0 l0 -5.46 c0 -1.52 -0.56 -2.48 -1.94 -2.48 c-1.42 0 -2.14 1.06 -2.14 2.78 l0 5.16 l-2.66 0 l0 -5.46 c0 -1.5 -0.54 -2.48 -1.9 -2.48 c-1.42 0 -2.18 1.08 -2.18 2.86 l0 5.08 l-2.64 0 l0 -10.12 l2.64 0 l0 1.2 c0.66 -0.86 1.66 -1.48 3 -1.48 c1.42 0 2.42 0.56 3.04 1.52 c0.66 -0.84 1.8 -1.52 3.42 -1.52 z M153.94 20.28 c-3.24 0 -5.5 -2.14 -5.5 -5.34 c0 -3.02 2.12 -5.34 5.3 -5.34 c3.32 0 5.22 2.3 5.22 5.2 c0 0.32 0 0.62 -0.06 0.94 l-7.86 0 c0.18 1.3 1.1 2.3 2.94 2.3 c1.28 0 2.06 -0.58 2.46 -1.34 l2.38 0.7 c-0.58 1.32 -2.22 2.88 -4.88 2.88 z M151.04 14.08 l5.34 0 c-0.12 -1.24 -1.08 -2.24 -2.66 -2.24 c-1.54 0 -2.54 1.08 -2.68 2.24 z M166.85999999999999 9.6 c2.64 0 3.98 1.78 3.98 4.48 l0 5.92 l-2.64 0 l0 -5.42 c0 -1.54 -0.7 -2.52 -2.16 -2.52 c-1.48 0 -2.44 1.16 -2.44 2.94 l0 5 l-2.64 0 l0 -10.12 l2.64 0 l0 1.28 c0.7 -0.9 1.8 -1.56 3.26 -1.56 z M179.12 17.54 l0.64 2.14 c-0.8 0.32 -1.52 0.48 -2.36 0.48 c-2.32 0 -3.38 -1.44 -3.38 -3.62 l0 -4.34 l-1.7 0 l0 -2.32 l1.7 0 l0 -3.28 l2.66 0 l0 3.28 l2.96 0 l0 2.32 l-2.96 0 l0 4.34 c0 0.82 0.4 1.28 1.24 1.28 c0.46 0 0.8 -0.08 1.2 -0.28 z"/></g>
			</g>
		</svg>
	