
        <svg xmlns="http://www.w3.org/2000/svg" xmlns:xlink="http://www.w3.org/1999/xlink" version="1.1" width="3180.1801801801803" height="783.7837837837836" viewBox="0 -117.1171171171171 3180.1801801801803 783.7837837837836">
			
			<g transform="scale(9.009009009009008) translate(10, 10)">
				<defs id="SvgjsDefs4188"/><g id="SvgjsG4189" featureKey="symbolFeature-0" transform="matrix(0.6000000000000001,0,0,0.6000000000000001,2.2820007324218743,-16.018000411987305)" fill="#fff"><path xmlns="http://www.w3.org/2000/svg" d="M14.03,50.03l13.5,13.5l13.5-13.5l-13.5-13.5L14.03,50.03 M27.53,32.03l18,18l-18,18l-18-18L27.53,32.03" style="fill-rule: evenodd; clip-rule: evenodd;"/><path xmlns="http://www.w3.org/2000/svg" d="M27.53,54.53l4.5-4.5l-4.5-4.5l-4.5,4.5L27.53,54.53 M18.53,50.03l9-9l9,9l-9,9L18.53,50.03" style="fill-rule: evenodd; clip-rule: evenodd;"/><path xmlns="http://www.w3.org/2000/svg" d="M68.03,72.53l-18-18l-18,18l18,18L68.03,72.53 M72.53,72.53l-22.5,22.5l-22.5-22.5l22.5-22.5L72.53,72.53" style="fill-rule: evenodd; clip-rule: evenodd;"/><path xmlns="http://www.w3.org/2000/svg" d="M59.03,72.53l-9-9l-9,9l9,9L59.03,72.53 M63.53,72.53l-13.5,13.5l-13.5-13.5l13.5-13.5L63.53,72.53" style="fill-rule: evenodd; clip-rule: evenodd;"/><polyline xmlns="http://www.w3.org/2000/svg" points="54.53,72.53 50.03,77.03 45.53,72.53 50.03,68.03 54.53,72.53 " style="fill-rule: evenodd; clip-rule: evenodd;"/><path xmlns="http://www.w3.org/2000/svg" d="M32.03,27.53l18,18l18-18l-18-18L32.03,27.53 M27.53,27.53l22.5-22.5l22.5,22.5l-22.5,22.5L27.53,27.53" style="fill-rule: evenodd; clip-rule: evenodd;"/><path xmlns="http://www.w3.org/2000/svg" d="M41.03,27.53l9,9l9-9l-9-9L41.03,27.53 M36.53,27.53l13.5-13.5l13.5,13.5l-13.5,13.5L36.53,27.53" style="fill-rule: evenodd; clip-rule: evenodd;"/><polyline xmlns="http://www.w3.org/2000/svg" points="45.53,27.53 50.03,23.03 54.53,27.53 50.03,32.03 45.53,27.53 " style="fill-rule: evenodd; clip-rule: evenodd;"/><path xmlns="http://www.w3.org/2000/svg" d="M72.53,45.53l-4.5,4.5l4.5,4.5l4.5-4.5L72.53,45.53 M81.53,50.03l-9,9l-9-9l9-9L81.53,50.03" style="fill-rule: evenodd; clip-rule: evenodd;"/></g><g id="SvgjsG4190" featureKey="nameFeature-0" transform="matrix(0.5671791820951249,0,0,0.5671791820951249,62.17191864295706,-6.613308635780262)" fill="#fff"><path d="M20.88 34.32 c0.36 0 0.6 0.24 0.6 0.6 l0 4.48 c0 0.36 -0.24 0.6 -0.6 0.6 l-15.74 0 c-0.36 0 -0.62 -0.24 -0.62 -0.6 l0 -8 l-2.34 2.3 c-0.4 0.4 -0.72 0.2 -0.72 -0.32 l0 -4.12 c0 -0.28 0.08 -0.52 0.32 -0.76 l2.74 -2.68 l0 -13.22 c0 -0.36 0.26 -0.6 0.62 -0.6 l5.26 0 c0.36 0 0.6 0.24 0.6 0.6 l0 6.84 l2.82 -2.76 c0.4 -0.4 0.72 -0.2 0.72 0.32 l0 4.08 c0 0.28 -0.08 0.52 -0.32 0.76 l-3.22 3.18 l0 9.3 l9.88 0 z M51.46 12 c0.36 0 0.6 0.24 0.6 0.6 l0 16.06 c0 8.18 -4.96 11.92 -11.88 11.92 c-6.88 0 -11.88 -3.74 -11.88 -11.92 l0 -16.06 c0 -0.36 0.24 -0.6 0.6 -0.6 l5.26 0 c0.36 0 0.6 0.24 0.6 0.6 l0 16.06 c0 3.5 2.04 5.7 5.42 5.7 c3.42 0 5.4 -2.2 5.4 -5.7 l0 -16.06 c0 -0.36 0.24 -0.6 0.6 -0.6 l5.28 0 z M79.66 39.28 c0.28 0.4 0.12 0.72 -0.36 0.72 l-6.14 0 c-0.32 0 -0.52 -0.08 -0.72 -0.36 l-7.08 -10.72 l-1.24 1.5 l0 8.98 c0 0.36 -0.24 0.6 -0.6 0.6 l-5.26 0 c-0.36 0 -0.6 -0.24 -0.6 -0.6 l0 -26.8 c0 -0.36 0.24 -0.6 0.6 -0.6 l5.26 0 c0.36 0 0.6 0.24 0.6 0.6 l0 9.18 l7.54 -9.46 c0.2 -0.24 0.44 -0.32 0.72 -0.32 l6.26 0 c0.52 0 0.62 0.36 0.32 0.72 l-9.44 11.24 z M108.62 39.32 c0.14 0.4 -0.04 0.68 -0.48 0.68 l-5.48 0 c-0.32 0 -0.56 -0.12 -0.68 -0.48 l-1.28 -3.88 l-10.02 0 l-1.28 3.88 c-0.1 0.36 -0.36 0.48 -0.68 0.48 l-5.48 0 c-0.44 0 -0.62 -0.28 -0.48 -0.68 l9.8 -26.84 c0.12 -0.32 0.36 -0.48 0.68 -0.48 l4.8 0 c0.32 0 0.66 0.16 0.78 0.48 z M92.5 30.18 l6.4 0 l-3.2 -9.68 z M122.56 23.06 c5.26 0.98 10.8 2.82 10.8 8.96 c0 5.98 -3.6 8.58 -10.66 8.58 c-6.58 0 -9.82 -2.24 -10.32 -7.84 c-0.04 -0.4 0.2 -0.66 0.56 -0.66 l4.82 0 c0.36 0 0.5 0.22 0.6 0.54 c0.52 1.44 1.8 2.14 4.34 2.14 c2.68 0 4.34 -0.76 4.34 -2.54 c0 -1.86 -0.6 -2.86 -4.48 -3.62 c-4.96 -0.98 -9.76 -3.04 -9.76 -8.68 c0 -5.16 3.14 -8.28 9.76 -8.28 c5.9 0 9.42 2.18 9.96 7.58 c0.04 0.4 -0.2 0.72 -0.56 0.72 l-4.46 0 c-0.36 0 -0.5 -0.28 -0.6 -0.6 c-0.38 -1.16 -1.64 -1.94 -4.24 -1.94 c-2.38 0 -3.58 1.04 -3.58 2.52 c0 1.2 -0.08 2.44 3.48 3.12 z M157.7 34.32 c0.36 0 0.6 0.24 0.6 0.6 l0 4.48 c0 0.36 -0.24 0.6 -0.6 0.6 l-18.54 0 c-0.36 0 -0.6 -0.24 -0.6 -0.6 l0 -4.68 c0 -0.28 0.08 -0.48 0.24 -0.72 l12.12 -16.32 l-11.36 0 c-0.36 0 -0.6 -0.24 -0.6 -0.6 l0 -4.48 c0 -0.36 0.24 -0.6 0.6 -0.6 l17.74 0 c0.36 0 0.6 0.24 0.6 0.6 l0 4.68 c0 0.28 -0.08 0.48 -0.24 0.72 l-12.12 16.32 l12.16 0 z M216.36 12 c0.44 0 0.58 0.28 0.48 0.68 l-7.12 26.84 c-0.08 0.32 -0.46 0.48 -0.78 0.48 l-5.54 0 c-0.32 0 -0.58 -0.16 -0.68 -0.48 l-4.92 -16.72 l-4.94 16.72 c-0.1 0.32 -0.34 0.48 -0.66 0.48 l-5.56 0 c-0.32 0 -0.68 -0.16 -0.76 -0.48 l-7.04 -26.84 c-0.12 -0.42 0.04 -0.68 0.48 -0.68 l5.48 0 c0.32 0 0.6 0.12 0.68 0.48 l4.3 18.92 l4.88 -18.92 c0.06 -0.22 0.18 -0.34 0.32 -0.42 c0.08 -0.04 0.2 -0.06 0.32 -0.06 l5 0 c0.12 0 0.24 0.02 0.32 0.06 c0.14 0.08 0.26 0.2 0.32 0.42 l4.88 18.92 l4.36 -18.92 c0.08 -0.36 0.36 -0.48 0.68 -0.48 l5.5 0 z M241.42000000000002 17.68 l-6.34 0 l0 16.64 l6.34 0 c0.36 0 0.6 0.24 0.6 0.6 l0 4.48 c0 0.36 -0.24 0.6 -0.6 0.6 l-19.14 0 c-0.36 0 -0.6 -0.24 -0.6 -0.6 l0 -4.48 c0 -0.36 0.24 -0.6 0.6 -0.6 l6.34 0 l0 -16.64 l-6.34 0 c-0.36 0 -0.6 -0.24 -0.6 -0.6 l0 -4.48 c0 -0.36 0.24 -0.6 0.6 -0.6 l19.14 0 c0.36 0 0.6 0.24 0.6 0.6 l0 4.48 c0 0.36 -0.24 0.6 -0.6 0.6 z M266.46000000000004 34.32 c0.36 0 0.6 0.24 0.6 0.6 l0 4.48 c0 0.32 -0.18 0.54 -0.46 0.58 l0 0.02 c-2.26 0.2 -3.32 1.56 -3.32 2.84 c0 0.72 0.52 1.68 2.36 1.3 l0 3.78 c-2.44 1.06 -7.36 0.4 -7.36 -3.86 c0 -1.72 0.92 -3.06 2.2 -4.06 l-11.56 0 c-0.36 0 -0.6 -0.24 -0.6 -0.6 l0 -26.8 c0 -0.36 0.24 -0.6 0.6 -0.6 l17.5 0 c0.36 0 0.6 0.24 0.6 0.6 l0 4.48 c0 0.36 -0.24 0.6 -0.6 0.6 l-11.64 0 l0 5.38 l10.66 0 c0.36 0 0.6 0.24 0.6 0.6 l0 4.48 c0 0.36 -0.24 0.6 -0.6 0.6 l-10.66 0 l0 5.58 l11.68 0 z M294.30000000000007 32.04 l3.24 3.5 c0.24 0.28 0.3 0.56 0.02 0.84 c-2.44 2.5 -6.02 4.14 -9.92 4.14 c-8.02 0 -14.52 -6.34 -14.52 -14.4 c0 -8.1 6.5 -14.44 14.52 -14.44 c3.9 0 7.48 1.6 9.92 4.14 c0.28 0.3 0.22 0.56 -0.02 0.84 l-3.24 3.5 c-0.22 0.28 -0.56 0.28 -0.84 0.04 c-1.54 -1.32 -3.48 -2.18 -5.88 -2.18 c-4.36 0 -7.78 3.48 -7.78 8.1 c0 4.58 3.42 8.06 7.78 8.06 c2.4 0 4.34 -0.86 5.88 -2.18 c0.28 -0.24 0.62 -0.24 0.84 0.04 z M324.94 39.28 c0.28 0.4 0.12 0.72 -0.36 0.72 l-6.14 0 c-0.32 0 -0.52 -0.08 -0.72 -0.36 l-7.08 -10.72 l-1.24 1.5 l0 8.98 c0 0.36 -0.24 0.6 -0.6 0.6 l-5.26 0 c-0.36 0 -0.6 -0.24 -0.6 -0.6 l0 -26.8 c0 -0.36 0.24 -0.6 0.6 -0.6 l5.26 0 c0.36 0 0.6 0.24 0.6 0.6 l0 9.18 l7.54 -9.46 c0.2 -0.24 0.44 -0.32 0.72 -0.32 l6.26 0 c0.52 0 0.62 0.36 0.32 0.72 l-9.44 11.24 z M343.5 40.52 c-7.92 0 -14.42 -6.4 -14.42 -14.4 c0 -8.04 6.5 -14.44 14.42 -14.44 c7.94 0 14.46 6.4 14.46 14.44 c0 8 -6.52 14.4 -14.46 14.4 z M343.5 34.26 c4.46 0 7.96 -3.58 7.96 -8.14 c0 -4.6 -3.5 -8.18 -7.96 -8.18 c-4.42 0 -7.92 3.58 -7.92 8.18 c0 4.56 3.5 8.14 7.92 8.14 z M400.02 12 c0.44 0 0.58 0.28 0.48 0.68 l-7.12 26.84 c-0.08 0.32 -0.46 0.48 -0.78 0.48 l-5.54 0 c-0.32 0 -0.58 -0.16 -0.68 -0.48 l-4.92 -16.72 l-4.94 16.72 c-0.1 0.32 -0.34 0.48 -0.66 0.48 l-5.56 0 c-0.32 0 -0.68 -0.16 -0.76 -0.48 l-7.04 -26.84 c-0.12 -0.42 0.04 -0.68 0.48 -0.68 l5.48 0 c0.32 0 0.6 0.12 0.68 0.48 l4.3 18.92 l4.88 -18.92 c0.06 -0.22 0.18 -0.34 0.32 -0.42 c0.08 -0.04 0.2 -0.06 0.32 -0.06 l5 0 c0.12 0 0.24 0.02 0.32 0.06 c0.14 0.08 0.26 0.2 0.32 0.42 l4.88 18.92 l4.36 -18.92 c0.08 -0.36 0.36 -0.48 0.68 -0.48 l5.5 0 z M414.82 23.06 c5.26 0.98 10.8 2.82 10.8 8.96 c0 5.98 -3.6 8.58 -10.66 8.58 c-6.58 0 -9.82 -2.24 -10.32 -7.84 c-0.04 -0.4 0.2 -0.66 0.56 -0.66 l4.82 0 c0.36 0 0.5 0.22 0.6 0.54 c0.52 1.44 1.8 2.14 4.34 2.14 c2.68 0 4.34 -0.76 4.34 -2.54 c0 -1.86 -0.6 -2.86 -4.48 -3.62 c-4.96 -0.98 -9.76 -3.04 -9.76 -8.68 c0 -5.16 3.14 -8.28 9.76 -8.28 c5.9 0 9.42 2.18 9.96 7.58 c0.04 0.4 -0.2 0.72 -0.56 0.72 l-4.46 0 c-0.36 0 -0.5 -0.28 -0.6 -0.6 c-0.38 -1.16 -1.64 -1.94 -4.24 -1.94 c-2.38 0 -3.58 1.04 -3.58 2.52 c0 1.2 -0.08 2.44 3.48 3.12 z M452.71999999999997 39.28 c0.28 0.4 0.12 0.72 -0.36 0.72 l-6.14 0 c-0.32 0 -0.52 -0.08 -0.72 -0.36 l-7.08 -10.72 l-1.24 1.5 l0 8.98 c0 0.36 -0.24 0.6 -0.6 0.6 l-5.26 0 c-0.36 0 -0.6 -0.24 -0.6 -0.6 l0 -26.8 c0 -0.36 0.24 -0.6 0.6 -0.6 l5.26 0 c0.36 0 0.6 0.24 0.6 0.6 l0 9.18 l7.54 -9.46 c0.2 -0.24 0.44 -0.32 0.72 -0.32 l6.26 0 c0.52 0 0.62 0.36 0.32 0.72 l-9.44 11.24 z M476.9 17.68 l-6.34 0 l0 16.64 l6.34 0 c0.36 0 0.6 0.24 0.6 0.6 l0 4.48 c0 0.36 -0.24 0.6 -0.6 0.6 l-19.14 0 c-0.36 0 -0.6 -0.24 -0.6 -0.6 l0 -4.48 c0 -0.36 0.24 -0.6 0.6 -0.6 l6.34 0 l0 -16.64 l-6.34 0 c-0.36 0 -0.6 -0.24 -0.6 -0.6 l0 -4.48 c0 -0.36 0.24 -0.6 0.6 -0.6 l19.14 0 c0.36 0 0.6 0.24 0.6 0.6 l0 4.48 c0 0.36 -0.24 0.6 -0.6 0.6 z"/></g><g id="SvgjsG4191" featureKey="sloganFeature-0" transform="matrix(0.8914718049506413,0,0,0.8914718049506413,110.15246522831814,18.79380409797357)" fill="#fff"><path d="M19.73 6 c0.22 0 0.29 0.14 0.24 0.34 l-3.56 13.42 c-0.04 0.16 -0.23 0.24 -0.39 0.24 l-2.77 0 c-0.16 0 -0.29 -0.08 -0.34 -0.24 l-2.46 -8.36 l-2.47 8.36 c-0.05 0.16 -0.17 0.24 -0.33 0.24 l-2.78 0 c-0.16 0 -0.34 -0.08 -0.38 -0.24 l-3.52 -13.42 c-0.06 -0.21 0.02 -0.34 0.24 -0.34 l2.74 0 c0.16 0 0.3 0.06 0.34 0.24 l2.15 9.46 l2.44 -9.46 c0.03 -0.11 0.09 -0.17 0.16 -0.21 c0.04 -0.02 0.1 -0.03 0.16 -0.03 l2.5 0 c0.06 0 0.12 0.01 0.16 0.03 c0.07 0.04 0.13 0.1 0.16 0.21 l2.44 9.46 l2.18 -9.46 c0.04 -0.18 0.18 -0.24 0.34 -0.24 l2.75 0 z M31.331 17.16 c0.18 0 0.3 0.12 0.3 0.3 l0 2.24 c0 0.18 -0.12 0.3 -0.3 0.3 l-8.77 0 c-0.18 0 -0.3 -0.12 -0.3 -0.3 l0 -13.4 c0 -0.18 0.12 -0.3 0.3 -0.3 l8.75 0 c0.18 0 0.3 0.12 0.3 0.3 l0 2.24 c0 0.18 -0.12 0.3 -0.3 0.3 l-5.82 0 l0 2.69 l5.33 0 c0.18 0 0.3 0.12 0.3 0.3 l0 2.24 c0 0.18 -0.12 0.3 -0.3 0.3 l-5.33 0 l0 2.79 l5.84 0 z M41.55200000000001 12.530000000000001 c1.81 0.34 2.84 1.53 2.84 3.44 c0 2.71 -1.41 4.03 -5.13 4.03 l-4.91 0 c-0.18 0 -0.3 -0.12 -0.3 -0.3 l0 -13.4 c0 -0.18 0.12 -0.3 0.3 -0.3 l5.14 0 c2.91 0 4.17 1.61 4.17 3.64 c0 1.47 -0.75 2.52 -2.11 2.89 z M40.662000000000006 10.06 c0 -0.92 -0.42 -1.22 -1.47 -1.22 l-1.91 0 l0 2.54 l1.87 0 c1.12 0 1.51 -0.35 1.51 -1.32 z M39.392 17.16 c1.27 0 1.78 -0.52 1.78 -1.55 c0 -1.16 -0.59 -1.57 -1.81 -1.57 l-2.08 0 l0 3.12 l2.11 0 z M58.70400000000001 6 c4.78 0 7.35 3.12 7.35 7 s-2.57 7 -7.35 7 l-4.27 0 c-0.18 0 -0.3 -0.12 -0.3 -0.3 l0 -13.4 c0 -0.18 0.12 -0.3 0.3 -0.3 l4.27 0 z M58.70400000000001 17.16 c2.71 0 4.07 -1.5 4.07 -4.16 s-1.36 -4.16 -4.07 -4.16 l-1.34 0 l0 8.32 l1.34 0 z M77.395 17.16 c0.18 0 0.3 0.12 0.3 0.3 l0 2.24 c0 0.18 -0.12 0.3 -0.3 0.3 l-8.77 0 c-0.18 0 -0.3 -0.12 -0.3 -0.3 l0 -13.4 c0 -0.18 0.12 -0.3 0.3 -0.3 l8.75 0 c0.18 0 0.3 0.12 0.3 0.3 l0 2.24 c0 0.18 -0.12 0.3 -0.3 0.3 l-5.82 0 l0 2.69 l5.33 0 c0.18 0 0.3 0.12 0.3 0.3 l0 2.24 c0 0.18 -0.12 0.3 -0.3 0.3 l-5.33 0 l0 2.79 l5.84 0 z M89.056 6.24 c0.06 -0.18 0.18 -0.24 0.34 -0.24 l2.74 0 c0.22 0 0.31 0.14 0.24 0.34 l-4.9 13.42 c-0.06 0.16 -0.23 0.24 -0.39 0.24 l-2.4 0 c-0.16 0 -0.28 -0.08 -0.34 -0.24 l-4.9 -13.42 c-0.07 -0.2 0.02 -0.34 0.24 -0.34 l2.74 0 c0.16 0 0.29 0.06 0.34 0.24 l3.15 9.51 z M103.547 17.16 c0.18 0 0.3 0.12 0.3 0.3 l0 2.24 c0 0.18 -0.12 0.3 -0.3 0.3 l-8.77 0 c-0.18 0 -0.3 -0.12 -0.3 -0.3 l0 -13.4 c0 -0.18 0.12 -0.3 0.3 -0.3 l8.75 0 c0.18 0 0.3 0.12 0.3 0.3 l0 2.24 c0 0.18 -0.12 0.3 -0.3 0.3 l-5.82 0 l0 2.69 l5.33 0 c0.18 0 0.3 0.12 0.3 0.3 l0 2.24 c0 0.18 -0.12 0.3 -0.3 0.3 l-5.33 0 l0 2.79 l5.84 0 z M115.488 17.16 c0.18 0 0.3 0.12 0.3 0.3 l0 2.24 c0 0.18 -0.12 0.3 -0.3 0.3 l-8.67 0 c-0.18 0 -0.3 -0.12 -0.3 -0.3 l0 -13.4 c0 -0.18 0.12 -0.3 0.3 -0.3 l2.63 0 c0.18 0 0.3 0.12 0.3 0.3 l0 10.86 l5.74 0 z M124.919 20.26 c-3.96 0 -7.21 -3.2 -7.21 -7.2 c0 -4.02 3.25 -7.22 7.21 -7.22 c3.97 0 7.23 3.2 7.23 7.22 c0 4 -3.26 7.2 -7.23 7.2 z M124.919 17.13 c2.23 0 3.98 -1.79 3.98 -4.07 c0 -2.3 -1.75 -4.09 -3.98 -4.09 c-2.21 0 -3.96 1.79 -3.96 4.09 c0 2.28 1.75 4.07 3.96 4.07 z M140 6 c4.41 0 5.73 1.57 5.73 4.72 c0 3.16 -1.32 4.73 -5.73 4.73 l-2 0 l0 4.25 c0 0.18 -0.12 0.3 -0.3 0.3 l-2.63 0 c-0.18 0 -0.3 -0.12 -0.3 -0.3 l0 -13.4 c0 -0.18 0.12 -0.3 0.3 -0.3 l4.93 0 z M140.23 12.61 c1.59 0 2.41 -0.34 2.41 -1.89 c0 -1.53 -0.82 -1.88 -2.41 -1.88 l-2.23 0 l0 3.77 l2.23 0 z M162.541 6 c0.18 0 0.3 0.12 0.3 0.3 l0 13.4 c0 0.18 -0.12 0.3 -0.3 0.3 l-2.63 0 c-0.18 0 -0.3 -0.12 -0.3 -0.3 l0 -6.64 l-2.64 6.69 c-0.06 0.16 -0.2 0.25 -0.36 0.25 l-2.36 0 c-0.16 0 -0.31 -0.09 -0.37 -0.25 l-2.65 -6.72 l0 6.67 c0 0.18 -0.12 0.3 -0.3 0.3 l-2.63 0 c-0.18 0 -0.3 -0.12 -0.3 -0.3 l0 -13.4 c0 -0.18 0.12 -0.3 0.3 -0.3 l2.95 0 c0.16 0 0.3 0.06 0.36 0.2 l3.82 10.06 l3.81 -10.06 c0.06 -0.14 0.2 -0.2 0.36 -0.2 l2.94 0 z M174.932 17.16 c0.18 0 0.3 0.12 0.3 0.3 l0 2.24 c0 0.18 -0.12 0.3 -0.3 0.3 l-8.77 0 c-0.18 0 -0.3 -0.12 -0.3 -0.3 l0 -13.4 c0 -0.18 0.12 -0.3 0.3 -0.3 l8.75 0 c0.18 0 0.3 0.12 0.3 0.3 l0 2.24 c0 0.18 -0.12 0.3 -0.3 0.3 l-5.82 0 l0 2.69 l5.33 0 c0.18 0 0.3 0.12 0.3 0.3 l0 2.24 c0 0.18 -0.12 0.3 -0.3 0.3 l-5.33 0 l0 2.79 l5.84 0 z M189.22299999999998 6 c0.18 0 0.3 0.12 0.3 0.3 l0 13.4 c0 0.18 -0.12 0.3 -0.3 0.3 l-2.96 0 c-0.16 0 -0.28 -0.06 -0.36 -0.2 l-4.77 -8.57 l0 8.47 c0 0.18 -0.12 0.3 -0.3 0.3 l-2.63 0 c-0.18 0 -0.3 -0.12 -0.3 -0.3 l0 -13.4 c0 -0.18 0.12 -0.3 0.3 -0.3 l2.95 0 c0.16 0 0.28 0.06 0.36 0.2 l4.77 8.56 l0 -8.46 c0 -0.18 0.12 -0.3 0.3 -0.3 l2.64 0 z M202.56399999999996 6 c0.18 0 0.3 0.12 0.3 0.3 l0 2.24 c0 0.18 -0.12 0.3 -0.3 0.3 l-3.62 0 l0 10.86 c0 0.18 -0.12 0.3 -0.3 0.3 l-2.63 0 c-0.18 0 -0.3 -0.12 -0.3 -0.3 l0 -10.86 l-3.62 0 c-0.18 0 -0.3 -0.12 -0.3 -0.3 l0 -2.24 c0 -0.18 0.12 -0.3 0.3 -0.3 l10.47 0 z"/></g>
			</g>
		</svg>
	